# xmcd
# 
# Track frame offsets:
#     150
#     15811
#     38647
#     54208
#     72169
#     88202
#     106298
#     131509
#     144610
# 
# Disc length: 2189
# 
# Revision: 0
# Processed by: cddbd v1.5.2PL0 Copyright (c) Steve Scherf et al.
# Submitted via: fre:ac v1.0.17
# 
DISCID=6c088b09
DTITLE=Johnny Winter - White, Hot and Blue
DYEAR=1978
DGENRE=Blues-Rock
TTITLE0=Walkin' By Myself
TTITLE1=Slidin' In
TTITLE2=Divin' Duck
TTITLE3=One Step At A Time
TTITLE4=Nickel Blues
TTITLE5=E-Z Rider
TTITLE6=Last Night
TTITLE7=Messin' With The Kid
TTITLE8=Honest I Do
EXTD=YEAR: 1978
EXTT0=
EXTT1=\n
EXTT2=
EXTT3=
EXTT4=
EXTT5=
EXTT6=
EXTT7=
EXTT8=
PLAYORDER=
